<svg xmlns="http://www.w3.org/2000/svg" width="400" height="80" version="1.2" baseProfile="tiny"><path fill="#FFF" d="M21.55 75.86c-.16.37-.2.54-.2.9l-.78-.3c.4-.44.46-.56.64-1l1.07-2.6-.94.3-.17-.18c.18-.06 1.65-.63 1.86-.68l-1.47 3.56zM43.4 74.2l-.74.07c-.8.08-1.06.25-1.3.45l.02-.53c0-.12 0-.16-.02-.24l2.73-.25-.96 2.2c1.18.13 1.26 1.03 1.27 1.17.05.36-.15 1.43-1.57 1.56-.7.06-1-.04-1.2-.12l.33-.82c.08.2.27.65.94.58.68-.06 1.02-.65.97-1.15-.03-.33-.27-.58-.5-.66-.36-.12-.7-.1-.97-.05l1-2.2zm-10.13 1.92h-.03l-.7-.07 1.2-2.2-2.46-.23-.32-.04-.16-.04-.13.8c.34-.22.47-.3 1.57-.2l.75.07-.97 1.8-.7-.07c-.14 0-.2-.02-.26-.03-.05 0-.1-.02-.14-.03l-.06.3h-.02.04l1 .1-.44.8c-.28.5-.55.94-.87 1.23l.98.1v-.26c.03-.3.16-.63.56-1.35l.25-.48.4.05c.14 0 .2.02.26.03.05 0 .1.02.14.03l.06-.3h.02-.02zm21.12-1.4h-.03l-.7.15.46-2.45-2.4.52-.32.06c-.05 0-.1 0-.16.02l.12.8c.25-.3.35-.44 1.43-.68l.74-.16-.37 2-.7.15-.24.05h-.14l.02.3v.02h.02l.97-.22-.15.9c-.1.57-.23 1.05-.45 1.43l.97-.2c-.02-.04-.06-.16-.07-.24-.07-.28-.05-.65.1-1.46l.1-.52.43-.1.26-.05h.12l-.03-.3v-.02.02z"/><g fill="#FFF"><path d="M15.1 33.59H9.9c0 8.97 5.68 18.5 17.9 22.27.72-1.5 1.46-3.07 2.2-4.78-11.5-3.2-14.87-11.9-14.87-17.52zm24.68 18.7c-2.67 0-5.06-.2-7.2-.6-.87 2.04-1.6 3.8-2.12 4.87 2.8.63 5.9.98 9.32.98 1.6 0 3.17-.16 4.7-.42-.83-1.62-1.57-3.28-2.2-4.97-.82.1-1.65.16-2.5.16zm6.4 7.9c-1.93.4-3.92.65-5.97.7-3.83.06-7.66-.4-11.3-1.3-1 1.86-2.02 3.55-3.03 5.1 4.62 1.32 9.53 2 14.44 1.92 3.3-.06 6.4-.55 9.37-1.37l-1.07-1.4c-.86-1.16-1.67-2.4-2.43-3.66z"/><path d="M12.66 51.05C8.1 46.63 5.78 41.23 5.73 35 5.6 17.73 22.3 7.24 38.53 7.1c15.9-.15 29.05 9.9 29.18 10l1.47 1.23 1.38-6.86C66.92 8.9 53.9 1.2 38.47 1.34 19.42 1.55-.17 14.2 0 35.05c.06 7.7 3.06 14.67 8.66 20.12 3.84 3.74 8.9 6.7 14.56 8.7 1-1.48 2-3.15 3.02-5.02-5.3-1.7-10.07-4.36-13.58-7.8z"/><path d="M77.67 37.6l1.08-3.67H47.8v5.73h23c-3.67 8.32-11.44 16.42-21.54 19.7.95 1.64 2.1 3.3 3.38 4.93 12.72-4.7 21.84-15.8 25.03-26.7z"/><path d="M79.9 11.87h-6.98l-.4 2.13c-2.64 13.8-11.87 33.65-27.2 37.6.68 1.56 1.46 3.18 2.3 4.8 16.28-4.92 26.2-24.52 29.57-39.3h.08v38.63h5.24V11.87H79.9z"/></g><path fill="#FFF" d="M70.16 69.54c-.8-.14-1.16 1.44.07 1.6.5.23.37 1.1-.66 2-1.03.87-6.15 2.4-10.1-.9S51.4 64.42 48.6 59.6c-2.1-3.67-4.56-8.65-5.94-12.9 5.72.15 5.06-2.4 5.06-2.4-1 1.7-3.14 2.02-5.23 1.87-.34-1.14-.6-2.22-.76-3.2-.73-4.7-.6-9.3-.37-10.25l-.32.23.03-.16s-6.3 4.03-13.55-.44-5.57-20.73 7.03-20.65c2.42-.08 6.23.66 7.76 3.07 0 0 .44-.8 1.47-1.1 0 0-1.04.08-1.77-.3-.73-.36-1.76-2.26-7.9-2.26-6.16 0-12.76 4.3-12.76 12.44 0 7.88 8.6 14.1 18.6 10.36-1.55 1.5-4.1 4.68-6.53 10.52-1.33-.04-2.47.22-2.5 1.24-.04 1.2.68 1.55 1.36 1.6-3.63 9.05-7.22 15.83-11 20.23-3.44 4-6.96 7.6-13.92 6.73-2.5-.37-6.08-3.88-3.07-7.77.37-.46.6.96 1.9.22 1.33-.73-.87-2.56-2.4-.73s-3.15 8.65 6.66 9.23c9.82.6 17.3-14.65 19.26-18.6.96-1.93 2.9-6.8 4.9-11.53 1.97.3 4.48 1.13 5.94 1.5.23 0 .45.04.67.05 1.24 5.17 3.74 11.26 7.9 16.86 9.82 13.2 14.95 12.23 19.86 11 1.6-.74 4.1-4.33 1.16-4.92zm-38.3-23.8c0-.6.54-.82 1.37-.82l-.2.52c-.2.48-.4.95-.57 1.42-.5-.23-.6-.58-.6-1.12zm5.7-.6c-.43-.1-1.53-.4-2.72-.58 2.07-4.8 4.2-9.34 5.43-10.25 0 0-.6 4.33.53 10.33.08.44.2.9.3 1.35-1.68-.26-3.1-.7-3.54-.83zM108.38 14.44c-1.16-1.33-2.9-2-4.68-2-3.55 0-6 2.32-6 6.5 0 4.12 2.12 6.68 6.22 6.68 1.13 0 2.3-.2 3.25-.7v-5.35c.3.03.6.06.92.06.28 0 .57-.03.9-.05v5.88c-1.8.62-3.72.96-5.66.96-5.27 0-7.7-3.15-7.7-7.37 0-4.86 3.5-7.42 8.14-7.42 3.1 0 4.85.92 5.3 1.2-.18.53-.33 1.07-.47 1.6h-.22zm6.18 3.7h3.23c.62 0 1.23-.1 1.85-.12-.02.17-.05.36-.05.55 0 .16.03.35.05.58-.62-.02-1.23-.1-1.86-.1h-3.24v6.1c1.27.03 2.53-.05 3.78-.1.64 0 1.27-.08 1.92-.18-.02.23-.06.42-.06.62s.04.4.06.62h-7.53v-14.2h7.4c-.02.24-.05.43-.05.63s.03.42.05.63c-.62-.13-1.25-.2-1.87-.23l-2.1-.04h-1.6v5.23zm21.52.77c.15 2.3-1.43 6.84-5.83 6.84-3.1 0-5.68-2.2-5.68-6.43s2.2-7 5.87-7c1.66 0 3.3.7 4.33 2.03 1.08 1.4 1.3 2.85 1.3 4.58zm-5.9 7.52c4.65 0 7.95-3.03 7.95-7.68 0-5-3.98-7.1-7.9-7.1-4.3 0-7.7 2.85-7.7 7.4 0 4.48 3.06 7.38 7.66 7.38zm12.88-13.72c.88-.04 2.3-.1 3.07.02 1.56.25 2.3 1.2 2.3 2.63 0 1.62-1.15 2.67-2.68 2.98-1.06.2-2.4.12-2.7.1V12.7zm-1.83 13.47c.3-.02.6-.05.9-.05.3 0 .6.03.93.05v-6.95h.8l1.66 1.96 2.46 3.2c.44.57.86 1.15 1.32 1.8.37-.03.8-.06 1.2-.06.38 0 .76.03 1.2.05l-.4-.52-1-1.16-4.3-5.44c2.1-.38 4.28-1.54 4.28-3.96 0-2.1-1.42-3.17-4.63-3.17h-4.42v14.24zm25.27-11.73c-1.17-1.33-2.92-2-4.7-2-3.53 0-6 2.32-6 6.5 0 4.12 2.14 6.68 6.24 6.68 1.13 0 2.3-.2 3.25-.7v-5.35c.28.03.6.06.9.06.3 0 .6-.03.92-.05v5.88c-1.8.62-3.73.96-5.66.96-5.27 0-7.7-3.15-7.7-7.37 0-4.86 3.5-7.42 8.13-7.42 3.1 0 4.85.92 5.3 1.2-.2.53-.33 1.07-.48 1.6h-.22zm3.34 6.42h5.22v1.3h-5.22v-1.3zm15.32-1.18h-4.58l2.27-5.33 2.3 5.33zm-1.56-8.05h-.48l-6.5 14.54c.23-.02.45-.05.73-.05.25 0 .48.03.77.05.58-1.95 1.33-3.8 2.06-5.62h5.3c.82 1.9 1.58 3.9 2.18 5.62.35-.02.7-.05 1.1-.05.36 0 .7.03 1.1.05l-6.26-14.54zm10.7 8.27c0 3.67 1.05 5.57 4.62 5.57 3.32 0 4.5-2.4 4.5-5.77v-7.77c.2.02.4.05.6.05.2 0 .38-.03.6-.05v8.3c0 4.1-2.44 6.2-6.12 6.2-2.07 0-3.44-.48-4.53-1.46-1.3-1.2-1.48-3.04-1.5-4.7v-8.34c.3.02.6.05.92.05.28 0 .57-.03.9-.05v7.97zm26.85-5.46c-1.17-1.33-2.92-2-4.7-2-3.53 0-6 2.32-6 6.5 0 4.12 2.14 6.68 6.24 6.68 1.12 0 2.28-.2 3.24-.7v-5.35c.3.03.6.06.92.06.3 0 .58-.03.9-.05v5.88c-1.8.62-3.7.96-5.65.96-5.26 0-7.7-3.15-7.7-7.37 0-4.86 3.52-7.42 8.15-7.42 3.1 0 4.85.92 5.3 1.2-.18.53-.33 1.07-.47 1.6h-.23zm6.28 5.46c0 3.67 1.04 5.57 4.62 5.57 3.32 0 4.5-2.4 4.5-5.77v-7.77c.2.02.4.05.6.05.18 0 .37-.03.58-.05v8.3c0 4.1-2.42 6.2-6.1 6.2-2.07 0-3.45-.48-4.53-1.46-1.32-1.2-1.48-3.04-1.5-4.7v-8.34c.3.02.6.05.9.05.3 0 .6-.03.93-.05v7.97zm14.33 3.46c.8 1.33 1.75 2.16 3.38 2.16 1.68 0 2.9-1.4 2.9-3.03 0-3.88-6.53-2.17-6.53-6.87 0-2.68 2.14-4 4.64-4 1 0 2.2.3 2.98 1-.25.54-.4 1.13-.56 1.7h-.22c-.43-1.1-1.35-1.8-2.58-1.8-1.43 0-2.62.96-2.62 2.43 0 3.83 6.57 2.3 6.57 6.72 0 2.97-2.3 4.74-5.14 4.74-1.02 0-2.7-.44-3.4-1.2.2-.6.3-1.24.4-1.86h.2zm16.03 2.85l-.93-.02c-.3 0-.62 0-.9.03V12.94c-2.12 0-3.4.13-4.58.25 0-.2.05-.42.05-.62s-.04-.4-.06-.63h10.75c-.02.23-.05.42-.05.63 0 .2.03.4.05.62-1.04-.12-2.5-.25-4.36-.25V26.2zM261.97 20.86h5.2v1.3h-5.2v-1.3zm10.2-.96c0 3.67 1.06 5.57 4.63 5.57 3.32 0 4.5-2.4 4.5-5.77v-7.77c.2.02.4.05.6.05.2 0 .37-.03.58-.05v8.3c0 4.1-2.42 6.2-6.1 6.2-2.07 0-3.45-.48-4.53-1.46-1.3-1.2-1.48-3.04-1.5-4.7v-8.34c.3.02.6.05.92.05.3 0 .58-.03.9-.05v7.97zm26.98 6.27h-.63c-.23-.3-.65-.8-1.1-1.26l-9-9.95h-.2v11.22c-.2-.02-.4-.05-.6-.05-.2 0-.4.03-.58.05V11.93h.82l9.9 10.72h.2V11.94c.2.02.4.05.6.05.2 0 .38-.03.6-.05v14.24zm4.35-14.24c.3.02.6.05.92.05.3 0 .58-.03.9-.05v14.24c-.32-.02-.6-.05-.9-.05-.32 0-.63.03-.92.05V11.93zm14.95 3.8l1.25-3.47.15-.33c.25.02.5.05.77.05.23 0 .48-.03.75-.05-.66 1.26-5.27 11.93-6.02 14.24-.15-.02-.3-.05-.42-.05-.15 0-.3.03-.44.05-2.4-4.9-5.44-12.48-6.36-14.24.32.02.67.05 1 .05s.65-.03 1.03-.05c.27.64.52 1.33.77 2l1.4 3.66 2.56 6.3h.2c.4-.85.83-1.66 1.16-2.52l2.2-5.64zm7.14 2.4h3.22c.63 0 1.23-.1 1.86-.1-.02.16-.05.35-.05.53 0 .17.03.36.05.6-.63-.03-1.23-.12-1.86-.12h-3.23v6.1c1.26.04 2.5-.04 3.76-.08.65-.02 1.28-.1 1.92-.2-.02.24-.05.43-.05.63s.03.4.05.62h-7.52v-14.2h7.4c-.02.24-.06.43-.06.63s.04.42.06.63c-.63-.13-1.25-.2-1.88-.23l-2.1-.04h-1.6v5.23zm10.78-5.43c.87-.04 2.3-.1 3.07.02 1.56.25 2.3 1.2 2.3 2.63 0 1.62-1.16 2.67-2.68 2.98-1.07.2-2.4.12-2.7.1V12.7zm-1.83 13.47c.3-.02.6-.05.9-.05.3 0 .6.03.93.05v-6.95h.8l1.66 1.96 2.46 3.2c.44.57.86 1.15 1.32 1.8.37-.03.8-.06 1.18-.06.4 0 .78.03 1.2.05l-.38-.52-1-1.16-4.3-5.44c2.1-.38 4.27-1.55 4.27-3.96 0-2.1-1.43-3.17-4.64-3.17h-4.42v14.24zm12.75-2.8c.8 1.32 1.75 2.15 3.38 2.15 1.68 0 2.9-1.4 2.9-3.03 0-3.88-6.53-2.17-6.53-6.87 0-2.68 2.13-4 4.62-4 1 0 2.2.3 3 1-.26.54-.4 1.13-.58 1.7h-.22c-.44-1.1-1.35-1.8-2.58-1.8-1.44 0-2.62.96-2.62 2.43 0 3.83 6.56 2.3 6.56 6.72 0 2.97-2.32 4.74-5.15 4.74-1.03 0-2.7-.44-3.4-1.2.2-.6.3-1.24.4-1.86h.2zm11.2-11.44c.28.02.6.05.9.05.3 0 .6-.03.92-.05v14.24c-.33-.02-.62-.05-.92-.05-.3 0-.62.03-.9.05V11.93zm10.96 14.28l-.9-.02c-.33 0-.64 0-.93.03V12.94c-2.1 0-3.38.13-4.57.25.02-.2.06-.42.06-.62s-.04-.4-.06-.63h10.76c-.02.23-.04.42-.04.63 0 .2.02.4.04.62-1.04-.12-2.5-.25-4.36-.25V26.2zm14-6.52h-4.58l2.27-5.33 2.3 5.33zm.1-9.34c.5 0 .96-.46.96-.97s-.44-.96-.96-.96-.96.47-.96.98c0 .5.46.96.96.96zm-4.1 0c.52 0 .98-.44.98-.97s-.44-.96-.97-.96c-.52 0-.96.47-.96.98 0 .5.47.96.97.96zm2.44 1.3h-.48l-6.5 14.53c.23-.02.46-.05.73-.05.25 0 .48.03.77.05.58-1.95 1.33-3.8 2.06-5.62h5.3c.83 1.9 1.58 3.9 2.18 5.62.36-.02.7-.05 1.1-.05.36 0 .7.03 1.1.05l-6.26-14.54zm13.74 14.57l-.92-.02c-.3 0-.62 0-.9.03V12.94c-2.12 0-3.4.13-4.58.25.02-.2.06-.42.06-.62s-.04-.4-.06-.63H400c-.02.23-.05.42-.05.63 0 .2.03.4.05.62-1.04-.12-2.5-.25-4.36-.25V26.2zM108.38 42.92c-1.16-1.33-2.9-2-4.68-2-3.55 0-6 2.32-6 6.5 0 4.12 2.12 6.68 6.22 6.68 1.13 0 2.3-.2 3.25-.7v-5.34c.3.02.6.05.92.05.28 0 .57-.02.9-.04v5.87c-1.8.63-3.72.97-5.66.97-5.27 0-7.7-3.15-7.7-7.37 0-4.86 3.5-7.42 8.14-7.42 3.1 0 4.85.93 5.3 1.22-.18.52-.33 1.06-.47 1.6h-.22zm17.2 4.47c.14 2.28-1.45 6.83-5.84 6.83-3.1 0-5.68-2.2-5.68-6.44s2.2-7 5.87-7c1.66 0 3.3.7 4.33 2 1.08 1.4 1.3 2.86 1.3 4.6zm-3.74-8.58c.5 0 .97-.46.97-.96s-.43-.97-.96-.97c-.52 0-.96.45-.96.96s.46.96.97.96zm-4.08 0c.5 0 .96-.44.96-.96s-.44-.97-.96-.97c-.53 0-.97.45-.97.96s.45.96.96.96zm1.92 16.08c4.64 0 7.94-3.03 7.94-7.68 0-5-4-7.1-7.9-7.1-4.3 0-7.7 2.85-7.7 7.42-.02 4.46 3.06 7.36 7.66 7.36zm16.22-.2c-.33-.03-.62-.04-.9-.04-.32 0-.64 0-.93.03V41.4c-2.1 0-3.37.14-4.56.26.03-.2.07-.4.07-.62 0-.2-.04-.4-.06-.63h10.76c-.02.24-.04.43-.04.64 0 .2.02.4.04.62-1.04-.12-2.5-.25-4.36-.25v13.3zm12.2 0c-.35-.03-.64-.04-.93-.04-.3 0-.62 0-.9.03V41.4c-2.12 0-3.4.14-4.58.26 0-.2.05-.4.05-.62 0-.2-.04-.4-.06-.63h10.75c-.02.24-.05.43-.05.64 0 .2.03.4.05.62-1.05-.12-2.5-.25-4.36-.25v13.3zm7.33-14.3c.3.03.6.06.92.06.3 0 .58-.03.9-.05v14.25c-.32-.02-.6-.05-.9-.05-.32 0-.63.03-.92.05V40.4zm18.6 14.25h-.64c-.24-.3-.66-.79-1.1-1.26l-9-9.98h-.2v11.23c-.22-.02-.4-.05-.6-.05-.2 0-.4.03-.58.05V40.4h.8l9.92 10.74h.2V40.4c.2.03.38.06.6.06.18 0 .37-.03.58-.05v14.25zm16.68-11.73c-1.15-1.33-2.9-2-4.67-2-3.54 0-6 2.32-6 6.5 0 4.12 2.12 6.68 6.23 6.68 1.12 0 2.3-.2 3.25-.7v-5.34c.3.02.6.05.92.05.3 0 .58-.02.92-.04v5.87c-1.8.63-3.73.97-5.67.97-5.27 0-7.7-3.15-7.7-7.37 0-4.86 3.52-7.42 8.14-7.42 3.1 0 4.86.93 5.32 1.22-.2.52-.33 1.06-.48 1.6h-.23zm6.44 3.7h3.24c.62 0 1.23-.1 1.85-.1-.02.15-.05.34-.05.53 0 .16.03.35.05.58-.62-.02-1.23-.1-1.85-.1h-3.24v6.1c1.28.04 2.53-.05 3.78-.1.65 0 1.27-.07 1.92-.18-.02.23-.06.42-.06.63 0 .2.04.42.06.62h-7.53V40.4h7.4c0 .24-.05.43-.05.64 0 .2.04.4.06.62-.6-.12-1.24-.2-1.87-.23l-2.08-.04h-1.6v5.2zm21.52 8.03h-.63c-.23-.3-.65-.79-1.1-1.26l-9-9.98h-.2v11.23c-.2-.02-.4-.05-.6-.05-.2 0-.38.03-.58.05V40.4h.82l9.9 10.74h.22V40.4c.17.03.36.06.57.06.2 0 .38-.03.6-.05v14.25z"/></svg>