<?xml version="1.0" encoding="UTF-8" standalone="no"?>
<svg
   xmlns:dc="http://purl.org/dc/elements/1.1/"
   xmlns:cc="http://creativecommons.org/ns#"
   xmlns:rdf="http://www.w3.org/1999/02/22-rdf-syntax-ns#"
   xmlns:svg="http://www.w3.org/2000/svg"
   xmlns="http://www.w3.org/2000/svg"
   xmlns:sodipodi="http://sodipodi.sourceforge.net/DTD/sodipodi-0.dtd"
   xmlns:inkscape="http://www.inkscape.org/namespaces/inkscape"
   version="1.1"
   id="Layer_1"
   x="0px"
   y="0px"
   viewBox="0 0 1428.400024 106.3000002"
   xml:space="preserve"
   inkscape:version="0.91 r13725"
   sodipodi:docname="logo_helmholtz_DE.svg"
   width="1428.400024"
   height="106.3000031"><metadata
     id="metadata115"><rdf:RDF><cc:Work
         rdf:about=""><dc:format>image/svg+xml</dc:format><dc:type
           rdf:resource="http://purl.org/dc/dcmitype/StillImage" /><dc:title></dc:title></cc:Work></rdf:RDF></metadata><defs
     id="defs113" /><sodipodi:namedview
     pagecolor="#ffffff"
     bordercolor="#666666"
     borderopacity="1"
     objecttolerance="10"
     gridtolerance="10"
     guidetolerance="10"
     inkscape:pageopacity="0"
     inkscape:pageshadow="2"
     inkscape:window-width="640"
     inkscape:window-height="480"
     id="namedview111"
     showgrid="true"
     fit-margin-top="0"
     fit-margin-left="0"
     fit-margin-right="0"
     fit-margin-bottom="0"
     inkscape:zoom="1.414213568"
     inkscape:cx="351.3297383"
     inkscape:cy="-38.08006317"
     inkscape:current-layer="Layer_1"
     showguides="true"
     inkscape:guide-bbox="true"><inkscape:grid
       type="xygrid"
       id="grid13585" /></sodipodi:namedview><style
     type="text/css"
     id="style3">
	.st0{fill:#005AA0;}
	.st1{fill:#8CB423;}
</style><g
     id="g5"
     transform="translate(-3.5,-74.39999847)"><path
       class="st0"
       d="m 48.9,119.5 0,-34.5 16.3,0 0,85 -16.3,0 0,-34.3 -29.1,0 0,34.3 -16.3,0 0,-85 16.3,0 0,34.4 29.1,0 z"
       id="path7"
       inkscape:connector-curvature="0"
       style="fill:#005aa0" /><path
       class="st0"
       d="m 137.1,85 0,16.3 -37.3,0 0,18.1 32.4,0 0,16.3 -32.4,0 0,18 37.3,0 0,16.3 -45.5,0 c -0.7,0 -1.4,-0.2 -1.9,-0.8 l -5.3,-5.3 c -0.6,-0.5 -0.8,-1.2 -0.8,-1.9 l 0,-69 c 0,-0.7 0.2,-1.4 0.8,-1.9 l 5.3,-5.3 C 90.2,85.3 90.9,85 91.6,85 l 45.5,0 z"
       id="path9"
       inkscape:connector-curvature="0"
       style="fill:#005aa0" /><path
       class="st0"
       d="m 162.4,170.1 c -0.7,0 -1.4,-0.2 -1.9,-0.8 l -5.3,-5.3 c -0.6,-0.5 -0.8,-1.2 -0.8,-1.9 l 0,-77.1 16.3,0 0,68.7 35.5,0 0,16.3 -43.8,0.1 0,0 z"
       id="path11"
       inkscape:connector-curvature="0"
       style="fill:#005aa0" /><path
       class="st0"
       d="m 293.7,85 0,85 -16.3,0 0,-47 -13.3,27.8 c -0.5,1 -1.4,1.6 -2.4,1.6 l -9.6,0 c -1.1,0 -2,-0.6 -2.5,-1.6 l -13.3,-27.8 0,47 -16.3,0 0,-85 16.3,0 20.6,43.2 20.5,-43.2 16.3,0 z"
       id="path13"
       inkscape:connector-curvature="0"
       style="fill:#005aa0" /><path
       class="st0"
       d="m 356.4,119.5 0,-34.5 16.3,0 0,85 -16.3,0 0,-34.3 -29.1,0 0,34.3 -16.3,0 0,-85 16.3,0 0,34.4 29.1,0 z"
       id="path15"
       inkscape:connector-curvature="0"
       style="fill:#005aa0" /><path
       class="st0"
       d="m 438.3,89.1 8.5,8.4 c 2.5,2.5 4,6 4,9.6 l 0,40.9 c 0,3.6 -1.4,7.1 -4,9.6 l -8.5,8.5 c -2.5,2.5 -6,4 -9.6,4 l -19.1,0 c -3.6,0 -7.2,-1.3 -9.7,-4 l -8.4,-8.5 c -2.5,-2.5 -4,-6 -4,-9.6 l 0,-40.9 c 0,-3.6 1.4,-7.1 4,-9.6 l 8.4,-8.4 c 2.6,-2.6 6.1,-4.1 9.7,-4.1 l 19.1,0 c 3.6,0 6.9,1.6 9.6,4.1 z m -3.9,56.7 0,-36.5 c 0,-0.7 -0.4,-1.4 -0.8,-1.9 l -5.2,-5.3 c -0.6,-0.5 -1.3,-0.8 -2,-0.8 l -14.6,0 c -0.7,0 -1.3,0.4 -1.9,0.8 l -5.2,5.3 c -0.6,0.5 -0.8,1.2 -0.8,1.9 l 0,36.5 c 0,0.7 0.2,1.3 0.8,1.9 l 5.2,5.2 c 0.6,0.6 1.2,0.8 1.9,0.8 l 14.6,0 c 0.7,0 1.4,-0.2 2,-0.8 l 5.2,-5.2 c 0.5,-0.5 0.8,-1.1 0.8,-1.9 z"
       id="path17"
       inkscape:connector-curvature="0"
       style="fill:#005aa0" /><path
       class="st0"
       d="m 473.2,170.1 c -0.7,0 -1.4,-0.2 -1.9,-0.8 L 466,164 c -0.6,-0.5 -0.8,-1.2 -0.8,-1.9 l 0,-77.1 16.3,0 0,68.7 35.5,0 0,16.3 -43.8,0.1 0,0 z"
       id="path19"
       inkscape:connector-curvature="0"
       style="fill:#005aa0" /><path
       class="st0"
       d="m 515.8,101.3 0,-16.3 61.4,0 0,16.3 -22.6,0 0,68.7 -16.3,0 0,-68.7 -22.5,0 z"
       id="path21"
       inkscape:connector-curvature="0"
       style="fill:#005aa0" /><path
       class="st0"
       d="m 640.4,85.9 5.3,5.3 c 0.5,0.5 0.8,1.2 0.8,1.9 l 0,4.2 -35.7,56.5 35.2,0 0,16.3 -48.7,0 c -0.7,0 -1.4,-0.2 -1.9,-0.8 l -5.3,-5.3 c -0.5,-0.5 -0.8,-1.2 -0.8,-1.9 l 0,-4.9 35.3,-55.8 -35.7,0 0,-16.4 49.7,0 c 0.6,0 1.3,0.4 1.8,0.9 z"
       id="path23"
       inkscape:connector-curvature="0"
       style="fill:#005aa0" /></g><g
     id="g25"
     transform="translate(-2.486860793,-73.79895182)"><path
       class="st1"
       d="m 730.4,94.8 -5.2,0 c -0.1,-1.5 -0.6,-2.7 -1.3,-3.6 -1.1,-1.3 -2.8,-2 -4.9,-2 -1.5,0 -2.8,0.4 -3.8,1.1 -1.2,0.9 -1.8,2 -1.8,3.4 0,1.3 0.6,2.3 1.9,3.1 0.8,0.5 2.8,1.4 5.9,2.7 2.7,1.1 4.6,2 5.6,2.6 3.1,1.9 4.7,4.6 4.7,8.2 0,3.4 -1.3,6.1 -3.9,8.1 -2.1,1.6 -4.8,2.3 -8.1,2.3 -4.9,0 -8.4,-1.6 -10.7,-4.8 -1.2,-1.8 -1.9,-4.2 -2.1,-7.2 l 5.3,0 c 0.2,2.2 0.8,3.8 1.8,5 1.3,1.5 3.3,2.3 5.8,2.3 1.8,0 3.4,-0.5 4.6,-1.4 1.2,-0.9 1.7,-2 1.7,-3.4 0,-1.5 -0.8,-2.8 -2.3,-3.8 -0.8,-0.6 -2.7,-1.5 -5.7,-2.8 -3.6,-1.5 -6,-2.9 -7.2,-4 -1.9,-1.7 -2.8,-3.9 -2.8,-6.5 0,-3.2 1.3,-5.8 3.9,-7.5 2.1,-1.5 4.6,-2.2 7.4,-2.2 4.2,0 7.4,1.4 9.5,4.3 0.9,1.6 1.5,3.6 1.7,6.1 z"
       id="path27"
       inkscape:connector-curvature="0"
       style="fill:#8cb423" /><path
       class="st1"
       d="m 738.2,85.1 7,0 c 4.6,0 7.8,0.3 9.8,1 2.2,0.7 3.8,2.1 4.9,4.1 0.9,1.7 1.4,3.6 1.4,5.7 0,3.1 -0.9,5.7 -2.8,7.5 -1.7,1.7 -4.1,2.6 -7.3,2.9 -1.4,0.1 -3.2,0.2 -5.4,0.2 l -2.3,0 0,13.6 -5.4,0 0.1,-35 0,0 z m 5.4,16.7 2.3,0 c 3,0 5.1,-0.2 6.3,-0.5 1.3,-0.4 2.2,-1.1 2.8,-2.2 0.5,-0.9 0.8,-1.9 0.8,-3.2 0,-2.7 -1,-4.4 -2.9,-5.3 -1.3,-0.6 -3.6,-0.8 -7,-0.8 l -2.3,0 0,12 0,0 z"
       id="path29"
       inkscape:connector-curvature="0"
       style="fill:#8cb423" /><path
       class="st1"
       d="m 772.5,120.1 -5.5,0 0,-35 5.5,0 0,35 z"
       id="path31"
       inkscape:connector-curvature="0"
       style="fill:#8cb423" /><path
       class="st1"
       d="m 777.8,85.1 23.8,0 0,4.6 -9.2,0 0,30.4 -5.4,0 0,-30.4 -9.2,0 0,-4.6 0,0 z"
       id="path33"
       inkscape:connector-curvature="0"
       style="fill:#8cb423" /><path
       class="st1"
       d="m 805.3,85.1 22,0 0,3.8 -17,26.5 16.6,0 0,4.7 -23,0 0,-4.2 16.8,-26.2 -15.5,0 0.1,-4.6 0,0 z"
       id="path35"
       inkscape:connector-curvature="0"
       style="fill:#8cb423" /><path
       class="st1"
       d="m 838.5,99.6 14,0 0,4.7 -14,0 0,11.1 15.8,0 0,4.7 -21.2,0 0,-35 20.7,0 0,4.6 -15.3,0 0,9.9 0,0 z"
       id="path37"
       inkscape:connector-curvature="0"
       style="fill:#8cb423" /><path
       class="st1"
       d="m 860.6,85.1 5.8,0 15.4,26.7 0,-26.7 5.1,0 0,35 -5.6,0 -15.6,-26.7 0,26.7 -5.2,0 0,-35 z"
       id="path39"
       inkscape:connector-curvature="0"
       style="fill:#8cb423" /><path
       class="st1"
       d="m 901.3,99.6 14,0 0,4.7 -14,0 0,15.8 -5.4,0 0,-35 20.7,0 0,4.6 -15.3,0 0,9.9 z"
       id="path41"
       inkscape:connector-curvature="0"
       style="fill:#8cb423" /><path
       class="st1"
       d="m 935.5,84.4 c 4.2,0 7.6,1.5 10.4,4.4 3.1,3.3 4.7,7.9 4.7,13.7 0,5.8 -1.6,10.4 -4.7,13.7 -2.8,2.9 -6.2,4.4 -10.4,4.4 -4.2,0 -7.7,-1.5 -10.4,-4.4 -3.1,-3.3 -4.7,-8 -4.7,-14 0,-2.6 0.4,-5.2 1.3,-7.7 1.2,-3.5 3.2,-6.2 6.3,-8.1 2.1,-1.3 4.7,-2 7.5,-2 z m 0,4.7 c -2.9,0 -5.1,1.1 -6.7,3.4 -1.8,2.6 -2.7,5.9 -2.7,9.9 0,4.3 0.9,7.7 2.7,10.3 1.6,2.3 3.8,3.4 6.7,3.4 2.9,0 5.1,-1.1 6.7,-3.4 1.8,-2.6 2.7,-5.9 2.7,-10.1 0,-4.2 -0.9,-7.6 -2.7,-10.1 -1.7,-2.3 -3.9,-3.4 -6.7,-3.4 z"
       id="path43"
       inkscape:connector-curvature="0"
       style="fill:#8cb423" /><path
       class="st1"
       d="m 957.3,85.1 7.5,0 c 2.9,0 5.1,0.1 6.6,0.3 2.9,0.4 5.2,1.5 6.8,3.4 1.5,1.8 2.3,4 2.3,6.6 0,4.6 -2.2,7.8 -6.7,9.6 l 8.6,15 -6.4,0 -8,-14.1 -5.4,0 0,14.1 -5.4,0 0,-34.9 z m 5.4,16.2 2.4,0 c 3.1,0 5.2,-0.2 6.4,-0.6 1.2,-0.4 2,-1.1 2.6,-2.2 0.5,-0.9 0.8,-1.9 0.8,-3.1 0,-2.3 -0.9,-3.9 -2.7,-4.8 -0.9,-0.5 -2.2,-0.7 -3.8,-0.8 -0.6,0 -1.8,-0.1 -3.5,-0.1 l -2.2,0 0,11.6 0,0 z"
       id="path45"
       inkscape:connector-curvature="0"
       style="fill:#8cb423" /><path
       class="st1"
       d="m 1009.2,94.8 -5.2,0 c -0.1,-1.5 -0.6,-2.7 -1.3,-3.6 -1.1,-1.3 -2.8,-2 -4.9,-2 -1.5,0 -2.8,0.4 -3.8,1.1 -1.2,0.9 -1.8,2 -1.8,3.4 0,1.3 0.7,2.3 1.9,3.1 0.8,0.5 2.8,1.4 5.9,2.7 2.7,1.1 4.6,2 5.6,2.6 3.1,1.9 4.7,4.6 4.7,8.2 0,3.4 -1.3,6.1 -3.9,8.1 -2.1,1.6 -4.8,2.3 -8.1,2.3 -4.9,0 -8.4,-1.6 -10.7,-4.8 -1.2,-1.8 -1.9,-4.2 -2.1,-7.2 l 5.3,0 c 0.2,2.2 0.8,3.8 1.8,5 1.3,1.5 3.3,2.3 5.8,2.3 1.8,0 3.4,-0.5 4.6,-1.4 1.2,-0.9 1.7,-2 1.7,-3.4 0,-1.5 -0.8,-2.8 -2.3,-3.8 -0.8,-0.6 -2.7,-1.5 -5.7,-2.8 -3.6,-1.5 -6,-2.9 -7.2,-4 -1.9,-1.7 -2.8,-3.9 -2.8,-6.5 0,-3.2 1.3,-5.8 3.9,-7.5 2.1,-1.5 4.6,-2.2 7.4,-2.2 4.2,0 7.4,1.4 9.5,4.3 1,1.6 1.6,3.6 1.7,6.1 z"
       id="path47"
       inkscape:connector-curvature="0"
       style="fill:#8cb423" /><path
       class="st1"
       d="m 1042,95.7 -4.8,0 c -0.8,-4.3 -3.2,-6.5 -7.2,-6.5 -2.8,0 -5,1.1 -6.6,3.4 -1.8,2.5 -2.6,5.9 -2.6,10 0,4.2 0.9,7.6 2.7,10.1 1.6,2.2 3.8,3.3 6.6,3.3 4.5,0 7,-2.8 7.5,-8.4 l 4.9,0 c -0.2,3.1 -0.9,5.7 -2,7.7 -2.1,3.6 -5.5,5.4 -10.2,5.4 -4.2,0 -7.7,-1.4 -10.4,-4.2 -3.2,-3.3 -4.8,-7.9 -4.8,-13.8 0,-6.4 1.8,-11.3 5.4,-14.6 2.7,-2.4 5.9,-3.6 9.6,-3.6 2.4,0 4.5,0.5 6.4,1.5 3.2,1.8 5,5 5.5,9.7 z"
       id="path49"
       inkscape:connector-curvature="0"
       style="fill:#8cb423" /><path
       class="st1"
       d="m 1054.2,99.6 15.1,0 0,-14.5 5.4,0 0,35 -5.4,0 0,-16 -15.1,0 0,16 -5.4,0 0,-35 5.4,0 0,14.5 z"
       id="path51"
       inkscape:connector-curvature="0"
       style="fill:#8cb423" /><path
       class="st1"
       d="m 1083.1,85.1 5.4,0 0,20.3 c 0,1.8 0,3 0.1,3.7 0.2,2.5 1,4.2 2.4,5.3 1.4,1 3.1,1.6 5.2,1.6 2.1,0 3.8,-0.5 5.2,-1.6 1.4,-1.1 2.2,-2.8 2.4,-5.3 0.1,-0.7 0.1,-2 0.1,-3.7 l 0,-20.3 5.4,0 0,20.4 c 0,2.6 -0.1,4.6 -0.3,5.7 -0.4,2.6 -1.5,4.7 -3.4,6.4 -2.4,2.1 -5.6,3.2 -9.5,3.2 -3.9,0 -7.1,-1.1 -9.5,-3.2 -1.9,-1.6 -3,-3.7 -3.4,-6.4 -0.2,-1.1 -0.3,-3.1 -0.3,-5.7 l 0.2,-20.4 0,0 z"
       id="path53"
       inkscape:connector-curvature="0"
       style="fill:#8cb423" /><path
       class="st1"
       d="m 1117.9,85.1 5.8,0 15.4,26.7 0,-26.7 5.1,0 0,35 -5.6,0 -15.6,-26.7 0,26.7 -5.2,0 0.1,-35 0,0 z"
       id="path55"
       inkscape:connector-curvature="0"
       style="fill:#8cb423" /><path
       class="st1"
       d="m 1167.3,102.3 11.7,0 0,14.5 c -3.7,2.6 -7.8,3.9 -12.3,3.9 -4.5,0 -8.2,-1.4 -10.9,-4.3 -1.6,-1.6 -2.7,-3.6 -3.5,-5.9 -0.8,-2.5 -1.2,-5.2 -1.2,-8 0,-6 1.6,-10.6 4.7,-13.9 2.7,-2.8 6.2,-4.3 10.4,-4.3 2.5,0 4.7,0.5 6.6,1.6 3.3,1.8 5.2,5 5.6,9.6 l -4.8,0 c -0.8,-4.3 -3.3,-6.4 -7.4,-6.4 -2.8,0 -5,1 -6.6,3 -2,2.5 -2.9,6 -2.9,10.4 0,4.5 1,7.9 3,10.4 1.6,2 3.9,3 6.9,3 2.7,0 5.2,-0.8 7.6,-2.3 l 0,-7.1 -7.1,0 0.2,-4.2 0,0 z"
       id="path57"
       inkscape:connector-curvature="0"
       style="fill:#8cb423" /><path
       class="st1"
       d="m 1205.2,99.6 14,0 0,4.7 -14,0 0,15.8 -5.4,0 0,-35 20.7,0 0,4.6 -15.3,0 0,9.9 z"
       id="path59"
       inkscape:connector-curvature="0"
       style="fill:#8cb423" /><path
       class="st1"
       d="m 1225.9,85.1 5.4,0 0,20.3 c 0,1.8 0,3 0.1,3.7 0.2,2.5 1,4.2 2.4,5.3 1.4,1 3.1,1.6 5.2,1.6 2.1,0 3.8,-0.5 5.2,-1.6 1.4,-1.1 2.2,-2.8 2.4,-5.3 0.1,-0.7 0.1,-2 0.1,-3.7 l 0,-20.3 5.4,0 0,20.4 c 0,2.6 -0.1,4.6 -0.3,5.7 -0.4,2.6 -1.5,4.7 -3.4,6.4 -2.4,2.1 -5.6,3.2 -9.5,3.2 -3.9,0 -7.1,-1.1 -9.5,-3.2 -1.9,-1.6 -3,-3.7 -3.4,-6.4 -0.2,-1.1 -0.3,-3.1 -0.3,-5.7 l 0.2,-20.4 0,0 z m 8.4,-10.5 c 0.9,0 1.7,0.3 2.4,1 0.7,0.7 1,1.5 1,2.4 0,0.9 -0.3,1.8 -1,2.5 -0.7,0.7 -1.5,1 -2.4,1 -1,0 -1.8,-0.3 -2.4,-1 -0.7,-0.7 -1,-1.5 -1,-2.4 0,-1 0.3,-1.8 1,-2.5 0.7,-0.7 1.5,-1 2.4,-1 z m 9.6,0 c 0.9,0 1.7,0.3 2.4,1 0.7,0.7 1,1.5 1,2.4 0,1 -0.3,1.8 -1,2.5 -0.7,0.7 -1.5,1 -2.4,1 -1,0 -1.8,-0.3 -2.5,-1 -0.7,-0.7 -1,-1.5 -1,-2.4 0,-1 0.3,-1.8 1,-2.5 0.7,-0.7 1.6,-1 2.5,-1 z"
       id="path61"
       inkscape:connector-curvature="0"
       style="fill:#8cb423" /><path
       class="st1"
       d="m 1260.7,85.1 7.5,0 c 2.9,0 5.1,0.1 6.6,0.3 2.9,0.4 5.2,1.5 6.8,3.4 1.5,1.8 2.3,4 2.3,6.6 0,4.6 -2.2,7.8 -6.7,9.6 l 8.6,15 -6.4,0 -8,-14.1 -5.4,0 0,14.1 -5.4,0 0.1,-34.9 0,0 z m 5.4,16.2 2.4,0 c 3.1,0 5.2,-0.2 6.4,-0.6 1.2,-0.4 2,-1.1 2.6,-2.2 0.5,-0.9 0.8,-1.9 0.8,-3.1 0,-2.3 -0.9,-3.9 -2.7,-4.8 -0.9,-0.5 -2.2,-0.7 -3.8,-0.8 -0.6,0 -1.8,-0.1 -3.5,-0.1 l -2.2,0 0,11.6 0,0 z"
       id="path63"
       inkscape:connector-curvature="0"
       style="fill:#8cb423" /><path
       class="st1"
       d="m 723,152.3 11.7,0 0,14.5 c -3.7,2.6 -7.8,3.9 -12.3,3.9 -4.5,0 -8.2,-1.4 -10.9,-4.3 -1.6,-1.6 -2.7,-3.6 -3.5,-5.9 -0.8,-2.5 -1.2,-5.2 -1.2,-8 0,-6 1.6,-10.6 4.7,-13.9 2.7,-2.8 6.2,-4.3 10.4,-4.3 2.5,0 4.7,0.5 6.6,1.6 3.3,1.8 5.2,5 5.6,9.6 l -4.8,0 c -0.8,-4.3 -3.3,-6.4 -7.4,-6.4 -2.8,0 -5,1 -6.6,3 -2,2.5 -2.9,6 -2.9,10.4 0,4.5 1,7.9 3,10.4 1.6,2 3.9,3 6.9,3 2.7,0 5.2,-0.8 7.6,-2.3 l 0,-7.1 -6.9,0 0,-4.2 0,0 z"
       id="path65"
       inkscape:connector-curvature="0"
       style="fill:#8cb423" /><path
       class="st1"
       d="m 742.2,135.1 7.5,0 c 2.9,0 5.1,0.1 6.6,0.3 2.9,0.4 5.2,1.5 6.8,3.4 1.5,1.8 2.3,4 2.3,6.6 0,4.6 -2.2,7.8 -6.7,9.6 l 8.6,15 -6.4,0 -8,-14.1 -5.4,0 0,14.1 -5.4,0 0.1,-34.9 0,0 z m 5.4,16.2 2.4,0 c 3.1,0 5.2,-0.2 6.4,-0.6 1.2,-0.4 2,-1.1 2.6,-2.2 0.5,-0.9 0.8,-1.9 0.8,-3.1 0,-2.3 -0.9,-3.9 -2.7,-4.8 -0.9,-0.5 -2.2,-0.7 -3.8,-0.8 -0.6,0 -1.8,-0.1 -3.5,-0.1 l -2.2,0 0,11.6 0,0 z"
       id="path67"
       inkscape:connector-curvature="0"
       style="fill:#8cb423" /><path
       class="st1"
       d="m 785.6,134.4 c 4.2,0 7.6,1.5 10.4,4.4 3.1,3.3 4.7,7.9 4.7,13.7 0,5.8 -1.6,10.4 -4.7,13.7 -2.8,2.9 -6.2,4.4 -10.4,4.4 -4.2,0 -7.7,-1.5 -10.4,-4.4 -3.1,-3.3 -4.7,-8 -4.7,-14 0,-2.6 0.4,-5.2 1.3,-7.7 1.2,-3.5 3.2,-6.2 6.3,-8.1 2.2,-1.3 4.7,-2 7.5,-2 z m 0,4.7 c -2.9,0 -5.1,1.1 -6.7,3.4 -1.8,2.6 -2.7,5.9 -2.7,9.9 0,4.3 0.9,7.7 2.7,10.3 1.6,2.3 3.8,3.4 6.7,3.4 2.9,0 5.1,-1.1 6.7,-3.4 1.8,-2.6 2.7,-5.9 2.7,-10.1 0,-4.2 -0.9,-7.6 -2.7,-10.1 -1.6,-2.3 -3.9,-3.4 -6.7,-3.4 z"
       id="path69"
       inkscape:connector-curvature="0"
       style="fill:#8cb423" /><path
       class="st1"
       d="m 829,144.8 -5.2,0 c -0.1,-1.5 -0.6,-2.7 -1.3,-3.6 -1.1,-1.3 -2.8,-2 -4.9,-2 -1.5,0 -2.8,0.4 -3.8,1.1 -1.2,0.9 -1.8,2 -1.8,3.4 0,1.3 0.7,2.3 1.9,3.1 0.8,0.5 2.8,1.4 5.9,2.7 2.7,1.1 4.6,2 5.6,2.6 3.1,1.9 4.7,4.6 4.7,8.2 0,3.4 -1.3,6.1 -3.9,8.1 -2.1,1.6 -4.8,2.3 -8.1,2.3 -4.9,0 -8.4,-1.6 -10.7,-4.8 -1.2,-1.8 -1.9,-4.2 -2.1,-7.2 l 5.3,0 c 0.2,2.2 0.8,3.8 1.8,5 1.3,1.5 3.3,2.3 5.8,2.3 1.8,0 3.4,-0.5 4.6,-1.4 1.2,-0.9 1.7,-2 1.7,-3.4 0,-1.5 -0.8,-2.8 -2.3,-3.8 -0.8,-0.6 -2.7,-1.5 -5.7,-2.8 -3.6,-1.5 -6,-2.9 -7.2,-4 -1.9,-1.7 -2.8,-3.9 -2.8,-6.5 0,-3.2 1.3,-5.8 3.9,-7.5 2.1,-1.5 4.6,-2.2 7.4,-2.2 4.2,0 7.4,1.4 9.5,4.3 0.9,1.6 1.5,3.6 1.7,6.1 z"
       id="path71"
       inkscape:connector-curvature="0"
       style="fill:#8cb423" /><path
       class="st1"
       d="m 858.4,144.8 -5.2,0 c -0.1,-1.5 -0.6,-2.7 -1.3,-3.6 -1.1,-1.3 -2.8,-2 -4.9,-2 -1.5,0 -2.8,0.4 -3.8,1.1 -1.2,0.9 -1.8,2 -1.8,3.4 0,1.3 0.7,2.3 1.9,3.1 0.8,0.5 2.8,1.4 5.9,2.7 2.7,1.1 4.6,2 5.6,2.6 3.1,1.9 4.7,4.6 4.7,8.2 0,3.4 -1.3,6.1 -3.9,8.1 -2.1,1.6 -4.8,2.3 -8.1,2.3 -4.9,0 -8.4,-1.6 -10.7,-4.8 -1.2,-1.8 -1.9,-4.2 -2.1,-7.2 l 5.3,0 c 0.2,2.2 0.8,3.8 1.8,5 1.3,1.5 3.3,2.3 5.8,2.3 1.8,0 3.4,-0.5 4.6,-1.4 1.2,-0.9 1.7,-2 1.7,-3.4 0,-1.5 -0.8,-2.8 -2.3,-3.8 -0.8,-0.6 -2.7,-1.5 -5.7,-2.8 -3.6,-1.5 -6,-2.9 -7.2,-4 -1.9,-1.7 -2.8,-3.9 -2.8,-6.5 0,-3.2 1.3,-5.8 3.9,-7.5 2.1,-1.5 4.6,-2.2 7.4,-2.2 4.2,0 7.4,1.4 9.5,4.3 0.9,1.6 1.5,3.6 1.7,6.1 z"
       id="path73"
       inkscape:connector-curvature="0"
       style="fill:#8cb423" /><path
       class="st1"
       d="m 871.2,149.6 14,0 0,4.7 -14,0 0,11.1 15.8,0 0,4.7 -21.2,0 0,-35 20.7,0 0,4.6 -15.3,0 0,9.9 z"
       id="path75"
       inkscape:connector-curvature="0"
       style="fill:#8cb423" /><path
       class="st1"
       d="m 912,149.6 15.1,0 0,-14.5 5.4,0 0,35 -5.4,0 0,-16 -15.1,0 0,16 -5.4,0 0,-35 5.4,0 0,14.5 z"
       id="path77"
       inkscape:connector-curvature="0"
       style="fill:#8cb423" /><path
       class="st1"
       d="m 946.7,149.6 14,0 0,4.7 -14,0 0,11.1 15.8,0 0,4.7 -21.2,0 0,-35 20.7,0 0,4.6 -15.3,0 0,9.9 0,0 z"
       id="path79"
       inkscape:connector-curvature="0"
       style="fill:#8cb423" /><path
       class="st1"
       d="m 968.8,135.1 7.5,0 c 2.9,0 5.1,0.1 6.6,0.3 2.9,0.4 5.2,1.5 6.8,3.4 1.5,1.8 2.3,4 2.3,6.6 0,4.6 -2.2,7.8 -6.7,9.6 l 8.6,15 -6.4,0 -8,-14.1 -5.4,0 0,14.1 -5.4,0 0.1,-34.9 0,0 z m 5.4,16.2 2.4,0 c 3.1,0 5.2,-0.2 6.4,-0.6 1.2,-0.4 2,-1.1 2.6,-2.2 0.5,-0.9 0.8,-1.9 0.8,-3.1 0,-2.3 -0.9,-3.9 -2.7,-4.8 -0.9,-0.5 -2.2,-0.7 -3.8,-0.8 -0.6,0 -1.8,-0.1 -3.5,-0.1 l -2.2,0 0,11.6 0,0 z"
       id="path81"
       inkscape:connector-curvature="0"
       style="fill:#8cb423" /><path
       class="st1"
       d="m 1008.2,135 5.3,0 12,35.1 -5.6,0 -2.6,-8.2 -12.7,0 -2.6,8.2 -5.6,0 11.8,-35.1 z m 7.6,22.2 -4.9,-15.7 -4.9,15.7 9.8,0 z"
       id="path83"
       inkscape:connector-curvature="0"
       style="fill:#8cb423" /><path
       class="st1"
       d="m 1028.8,135.1 5.4,0 0,20.3 c 0,1.8 0,3 0.1,3.7 0.2,2.5 1,4.2 2.4,5.3 1.4,1 3.1,1.6 5.2,1.6 2.1,0 3.8,-0.5 5.2,-1.6 1.4,-1.1 2.2,-2.8 2.4,-5.3 0.1,-0.7 0.1,-2 0.1,-3.7 l 0,-20.3 5.4,0 0,20.4 c 0,2.6 -0.1,4.6 -0.3,5.7 -0.4,2.6 -1.5,4.7 -3.4,6.4 -2.4,2.1 -5.6,3.2 -9.5,3.2 -3.9,0 -7.1,-1.1 -9.5,-3.2 -1.9,-1.6 -3,-3.7 -3.4,-6.4 -0.2,-1.1 -0.3,-3.1 -0.3,-5.7 l 0.2,-20.4 0,0 z"
       id="path85"
       inkscape:connector-curvature="0"
       style="fill:#8cb423" /><path
       class="st1"
       d="m 1085.1,144.8 -5.2,0 c -0.1,-1.5 -0.6,-2.7 -1.3,-3.6 -1.1,-1.3 -2.8,-2 -4.9,-2 -1.5,0 -2.8,0.4 -3.8,1.1 -1.2,0.9 -1.8,2 -1.8,3.4 0,1.3 0.7,2.3 1.9,3.1 0.8,0.5 2.8,1.4 5.9,2.7 2.7,1.1 4.6,2 5.6,2.6 3.1,1.9 4.7,4.6 4.7,8.2 0,3.4 -1.3,6.1 -3.9,8.1 -2.1,1.6 -4.8,2.3 -8.1,2.3 -4.9,0 -8.4,-1.6 -10.7,-4.8 -1.2,-1.8 -1.9,-4.2 -2.1,-7.2 l 5.3,0 c 0.2,2.2 0.8,3.8 1.8,5 1.3,1.5 3.3,2.3 5.8,2.3 1.8,0 3.4,-0.5 4.6,-1.4 1.2,-0.9 1.7,-2 1.7,-3.4 0,-1.5 -0.8,-2.8 -2.3,-3.8 -0.8,-0.6 -2.7,-1.5 -5.7,-2.8 -3.6,-1.5 -6,-2.9 -7.2,-4 -1.9,-1.7 -2.8,-3.9 -2.8,-6.5 0,-3.2 1.3,-5.8 3.9,-7.5 2.1,-1.5 4.6,-2.2 7.4,-2.2 4.2,0 7.4,1.4 9.5,4.3 1,1.6 1.6,3.6 1.7,6.1 z"
       id="path87"
       inkscape:connector-curvature="0"
       style="fill:#8cb423" /><path
       class="st1"
       d="m 1098.4,149.6 14,0 0,4.7 -14,0 0,15.8 -5.4,0 0,-35 20.7,0 0,4.6 -15.3,0 0,9.9 z"
       id="path89"
       inkscape:connector-curvature="0"
       style="fill:#8cb423" /><path
       class="st1"
       d="m 1132.6,134.4 c 4.2,0 7.6,1.5 10.4,4.4 3.1,3.3 4.7,7.9 4.7,13.7 0,5.8 -1.6,10.4 -4.7,13.7 -2.8,2.9 -6.2,4.4 -10.4,4.4 -4.2,0 -7.7,-1.5 -10.4,-4.4 -3.1,-3.3 -4.7,-8 -4.7,-14 0,-2.6 0.4,-5.2 1.3,-7.7 1.2,-3.5 3.2,-6.2 6.3,-8.1 2.1,-1.3 4.7,-2 7.5,-2 z m 0,4.7 c -2.9,0 -5.1,1.1 -6.7,3.4 -1.8,2.6 -2.7,5.9 -2.7,9.9 0,4.3 0.9,7.7 2.7,10.3 1.6,2.3 3.8,3.4 6.7,3.4 2.9,0 5.1,-1.1 6.7,-3.4 1.8,-2.6 2.7,-5.9 2.7,-10.1 0,-4.2 -0.9,-7.6 -2.7,-10.1 -1.7,-2.3 -3.9,-3.4 -6.7,-3.4 z"
       id="path91"
       inkscape:connector-curvature="0"
       style="fill:#8cb423" /><path
       class="st1"
       d="m 1154.4,135.1 7.5,0 c 2.9,0 5.1,0.1 6.6,0.3 2.9,0.4 5.2,1.5 6.8,3.4 1.5,1.8 2.3,4 2.3,6.6 0,4.6 -2.2,7.8 -6.7,9.6 l 8.6,15 -6.4,0 -8,-14.1 -5.4,0 0,14.1 -5.4,0 0.1,-34.9 0,0 z m 5.4,16.2 2.4,0 c 3.1,0 5.2,-0.2 6.4,-0.6 1.2,-0.4 2,-1.1 2.6,-2.2 0.5,-0.9 0.8,-1.9 0.8,-3.1 0,-2.3 -0.9,-3.9 -2.7,-4.8 -0.9,-0.5 -2.2,-0.7 -3.8,-0.8 -0.6,0 -1.8,-0.1 -3.5,-0.1 l -2.2,0 0,11.6 0,0 z"
       id="path93"
       inkscape:connector-curvature="0"
       style="fill:#8cb423" /><path
       class="st1"
       d="m 1184.8,135.1 7.1,0 c 2.8,0 5.2,0.1 7,0.4 3.7,0.6 6.7,2.3 9,5.3 2.5,3.2 3.7,7.2 3.7,11.8 0,4.8 -1.3,8.8 -3.8,12 -2.3,3 -5.5,4.7 -9.4,5.2 -1.6,0.2 -4,0.3 -7.2,0.3 l -6.4,0 0,-35 0,0 z m 5.4,30.3 2.8,0 c 2.1,0 3.7,-0.1 4.9,-0.3 2.6,-0.5 4.6,-1.8 6,-4 1.4,-2.3 2.1,-5.2 2.1,-8.6 0,-3.5 -0.8,-6.4 -2.4,-8.7 -1.4,-2.1 -3.4,-3.4 -6.1,-3.8 -1.2,-0.2 -3.1,-0.3 -5.9,-0.3 l -1.5,0 0.1,25.7 0,0 z"
       id="path95"
       inkscape:connector-curvature="0"
       style="fill:#8cb423" /><path
       class="st1"
       d="m 1223.8,149.6 14,0 0,4.7 -14,0 0,11.1 15.8,0 0,4.7 -21.2,0 0,-35 20.7,0 0,4.6 -15.3,0 0,9.9 z"
       id="path97"
       inkscape:connector-curvature="0"
       style="fill:#8cb423" /><path
       class="st1"
       d="m 1245.9,135.1 7.5,0 c 2.9,0 5.1,0.1 6.6,0.3 2.9,0.4 5.2,1.5 6.8,3.4 1.5,1.8 2.3,4 2.3,6.6 0,4.6 -2.2,7.8 -6.7,9.6 l 8.6,15 -6.4,0 -8,-14.1 -5.4,0 0,14.1 -5.4,0 0.1,-34.9 0,0 z m 5.4,16.2 2.4,0 c 3.1,0 5.2,-0.2 6.4,-0.6 1.2,-0.4 2,-1.1 2.6,-2.2 0.5,-0.9 0.8,-1.9 0.8,-3.1 0,-2.3 -0.9,-3.9 -2.7,-4.8 -0.9,-0.5 -2.2,-0.7 -3.8,-0.8 -0.6,0 -1.8,-0.1 -3.5,-0.1 l -2.2,0 0,11.6 0,0 z"
       id="path99"
       inkscape:connector-curvature="0"
       style="fill:#8cb423" /><path
       class="st1"
       d="m 1275.2,135.1 5.4,0 0,20.3 c 0,1.8 0,3 0.1,3.7 0.2,2.5 1,4.2 2.4,5.3 1.4,1 3.1,1.6 5.2,1.6 2.1,0 3.8,-0.5 5.2,-1.6 1.4,-1.1 2.2,-2.8 2.4,-5.3 0.1,-0.7 0.1,-2 0.1,-3.7 l 0,-20.3 5.4,0 0,20.4 c 0,2.6 -0.1,4.6 -0.3,5.7 -0.4,2.6 -1.5,4.7 -3.4,6.4 -2.4,2.1 -5.6,3.2 -9.5,3.2 -3.9,0 -7.1,-1.1 -9.5,-3.2 -1.9,-1.6 -3,-3.7 -3.4,-6.4 -0.2,-1.1 -0.3,-3.1 -0.3,-5.7 l 0.2,-20.4 0,0 z"
       id="path101"
       inkscape:connector-curvature="0"
       style="fill:#8cb423" /><path
       class="st1"
       d="m 1309.6,135.1 5.8,0 15.4,26.7 0,-26.7 5.1,0 0,35 -5.6,0 -15.6,-26.7 0,26.7 -5.2,0 0.1,-35 0,0 z"
       id="path103"
       inkscape:connector-curvature="0"
       style="fill:#8cb423" /><path
       class="st1"
       d="m 1358.9,152.3 11.7,0 0,14.5 c -3.7,2.6 -7.8,3.9 -12.3,3.9 -4.5,0 -8.2,-1.4 -10.9,-4.3 -1.6,-1.6 -2.7,-3.6 -3.5,-5.9 -0.8,-2.5 -1.2,-5.2 -1.2,-8 0,-6 1.6,-10.6 4.7,-13.9 2.7,-2.8 6.2,-4.3 10.4,-4.3 2.5,0 4.7,0.5 6.6,1.6 3.3,1.8 5.2,5 5.6,9.6 l -4.8,0 c -0.8,-4.3 -3.3,-6.4 -7.4,-6.4 -2.8,0 -5,1 -6.6,3 -2,2.5 -2.9,6 -2.9,10.4 0,4.5 1,7.9 3,10.4 1.6,2 3.9,3 6.9,3 2.7,0 5.2,-0.8 7.6,-2.3 l 0,-7.1 -7.1,0 0.2,-4.2 0,0 z"
       id="path105"
       inkscape:connector-curvature="0"
       style="fill:#8cb423" /><path
       class="st1"
       d="m 1383.6,149.6 14,0 0,4.7 -14,0 0,11.1 15.8,0 0,4.7 -21.2,0 0,-35 20.7,0 0,4.6 -15.3,0 0,9.9 z"
       id="path107"
       inkscape:connector-curvature="0"
       style="fill:#8cb423" /><path
       class="st1"
       d="m 1405.6,135.1 5.8,0 15.4,26.7 0,-26.7 5.1,0 0,35 -5.6,0 -15.6,-26.7 0,26.7 -5.2,0 0.1,-35 0,0 z"
       id="path109"
       inkscape:connector-curvature="0"
       style="fill:#8cb423" /></g></svg>